HIERARCHY
ROOT Hip
{
	OFFSET 0.000000 0.000000 0.000000 
	CHANNELS 6 Xposition Yposition Zposition Xrotation Yrotation Zrotation
	JOINT LowerSpine
	{
		OFFSET 0.000000 8.345300 -5.129200 
		CHANNELS 3 Xrotation Yrotation Zrotation
		JOINT MiddleSpine
		{
			OFFSET 10.856900 0.000000 0.000000 
			CHANNELS 3 Xrotation Yrotation Zrotation
			JOINT Chest
			{
				OFFSET 15.298400 0.000000 0.000000 
				CHANNELS 3 Xrotation Yrotation Zrotation
				JOINT Neck
				{
					OFFSET 25.661800 -0.598600 0.000000 
					CHANNELS 3 Xrotation Yrotation Zrotation
					JOINT Head
					{
						OFFSET 8.882900 0.000000 0.000000 
						CHANNELS 3 Xrotation Yrotation Zrotation
						End Site
						{
							OFFSET 19.739901 0.000000 0.000000 
						}
					}
				}
				JOINT RClavicle
				{
					OFFSET 23.687799 0.000000 3.158400 
					CHANNELS 3 Xrotation Yrotation Zrotation
					JOINT RShoulder
					{
						OFFSET -15.594500 -3.948000 0.987000 
						CHANNELS 3 Xrotation Yrotation Zrotation
						JOINT RForearm
						{
							OFFSET -31.337000 0.000000 0.197400 
							CHANNELS 3 Xrotation Yrotation Zrotation
							JOINT RHand
							{
								OFFSET -26.402100 0.000000 0.000000 
								CHANNELS 3 Xrotation Yrotation Zrotation
								End Site
								{
									OFFSET -15.791900 -0.987000 0.000000 
								}
							}
						}
					}
				}
				JOINT LClavicle
				{
					OFFSET 23.687799 0.000000 -3.158400 
					CHANNELS 3 Xrotation Yrotation Zrotation
					JOINT LShoulder
					{
						OFFSET -15.594500 -3.948000 -0.987000 
						CHANNELS 3 Xrotation Yrotation Zrotation
						JOINT LForearm
						{
							OFFSET -31.337000 0.000000 -0.197400 
							CHANNELS 3 Xrotation Yrotation Zrotation
							JOINT LHand
							{
								OFFSET -26.402100 0.000000 0.000000 
								CHANNELS 3 Xrotation Yrotation Zrotation
								End Site
								{
									OFFSET -15.791900 -0.987000 0.000000 
								}
							}
						}
					}
				}
			}
		}
	}
	JOINT RThigh
	{
		OFFSET -8.882900 0.448100 0.000000 
		CHANNELS 3 Xrotation Yrotation Zrotation
		JOINT RShin
		{
			OFFSET 43.131599 0.000000 -0.493500 
			CHANNELS 3 Xrotation Yrotation Zrotation
			JOINT RFoot
			{
				OFFSET 0.000000 -44.725601 -0.404700 
				CHANNELS 3 Xrotation Yrotation Zrotation
				JOINT RToe
				{
					OFFSET 0.000000 -3.933200 12.195300 
					CHANNELS 3 Xrotation Yrotation Zrotation
					End Site
					{
						OFFSET 6.772500 0.000000 0.000000 
					}
				}
			}
		}
	}
	JOINT LThigh
	{
		OFFSET 8.882900 0.448100 0.000000 
		CHANNELS 3 Xrotation Yrotation Zrotation
		JOINT LShin
		{
			OFFSET 43.131599 0.000000 0.493500 
			CHANNELS 3 Xrotation Yrotation Zrotation
			JOINT LFoot
			{
				OFFSET 0.000000 -44.725601 0.404700 
				CHANNELS 3 Xrotation Yrotation Zrotation
				JOINT LToe
				{
					OFFSET 0.000000 -3.933200 -12.195300 
					CHANNELS 3 Xrotation Yrotation Zrotation
					End Site
					{
						OFFSET 6.772500 0.000000 0.000000 
					}
				}
			}
		}
	}
}
MOTION
Frames: 11
Frame Time: 0.016949
-0.574977 87.743958 -20.952604 7.238529 3.338128 -1.323386 -89.999992 -90.000000 0.000000 -0.534465 -0.441870 -0.487491 -1.773015 -1.465214 -1.655516 0.000000 0.000000 0.000000 0.000000 0.000000 0.000000 90.002525 -0.309588 -85.838562 12.071855 18.511997 69.153145 11.553871 55.640198 -13.630918 0.000000 0.000000 0.000000 -89.996262 0.200145 -87.310646 -14.987259 -33.614315 64.454315 -5.427697 -43.390232 -8.201023 0.000000 0.000000 0.000000 -66.784836 83.718132 -42.357883 89.616478 36.338173 90.103195 -23.304256 3.151556 3.002614 179.835419 90.000000 0.000000 -75.884056 82.724724 -35.544128 -89.406677 -49.195950 90.234322 3.138517 2.186232 -1.238562 204.444305 -90.000000 0.000000 
-0.494033 87.801781 -21.064013 7.299517 3.774449 -1.406965 -89.999992 -90.000000 0.000000 -0.519873 -0.446241 -0.481945 -1.741925 -1.485883 -1.629401 0.000000 0.000000 0.000000 0.000000 0.000000 0.000000 90.002281 -0.299460 -85.974670 12.240598 18.052568 68.425858 11.991716 58.911987 -13.863448 0.000000 0.000000 0.000000 -89.996132 0.201233 -87.296005 -16.690529 -32.091961 63.618164 -6.427396 -47.291210 -8.972542 0.000000 0.000000 0.000000 -65.097198 83.402969 -43.879040 89.624313 35.718784 90.099380 -23.017668 2.868232 2.753367 179.924942 90.000000 0.000000 -58.794357 82.843758 -57.133984 -89.344276 -53.261784 90.272530 0.567657 1.275772 -0.468330 202.668488 -90.000000 0.000000 
-0.436688 87.819489 -21.210819 7.416391 4.137980 -1.408430 -89.999992 -90.000000 0.000000 -0.483014 -0.437274 -0.463499 -1.624890 -1.459913 -1.564146 0.000000 0.000000 0.000000 0.000000 0.000000 0.000000 90.001663 -0.304749 -85.903671 12.064202 16.833601 67.910309 12.878753 63.637497 -14.466037 0.000000 0.000000 0.000000 -89.996155 0.196878 -87.354485 -18.235407 -29.794315 63.174122 -7.808589 -51.787140 -10.095892 0.000000 0.000000 0.000000 -63.355961 83.151573 -45.756565 89.627449 35.543137 90.097183 -22.666336 2.352063 2.315042 179.568649 90.000000 0.000000 -44.322037 82.733368 -76.177292 -89.264153 -57.645905 90.327454 -0.049292 -0.046000 0.279739 196.869644 -90.000000 0.000000 
-0.387644 87.855507 -21.402428 7.610722 4.412827 -1.263479 -89.999992 -90.000000 0.000000 -0.417580 -0.405107 -0.436325 -1.408157 -1.360336 -1.465454 0.000000 0.000000 0.000000 0.000000 0.000000 0.000000 90.000916 -0.319474 -85.705963 10.816245 14.145873 68.300491 14.266569 69.007057 -15.542931 0.000000 0.000000 0.000000 -89.996338 0.184654 -87.518692 -19.797297 -26.746069 63.061882 -9.849193 -56.953777 -11.845599 0.000000 0.000000 0.000000 -61.010689 82.996452 -48.403862 89.629616 35.456223 90.095322 -22.267090 2.297111 2.223172 179.262268 90.000000 0.000000 -37.512222 82.915688 -87.874039 -89.155525 -62.421471 90.409531 -0.510176 -0.336652 0.511526 191.864014 -90.000000 0.000000 
-0.304799 87.940521 -21.589338 7.828949 4.435767 -1.015888 -89.999992 -90.000000 0.000000 -0.326543 -0.346754 -0.405298 -1.102150 -1.173134 -1.356172 0.000000 0.000000 0.000000 0.000000 0.000000 0.000000 90.000305 -0.335467 -85.491241 8.869739 11.290504 68.763321 16.361132 74.558342 -17.326046 0.000000 0.000000 0.000000 -89.996758 0.164254 -87.792778 -21.558945 -23.564283 63.149097 -12.381123 -61.676682 -14.114767 0.000000 0.000000 0.000000 -57.929638 82.892654 -51.668667 89.635139 35.055405 90.092300 -21.943298 2.985074 2.661547 179.523773 90.000000 0.000000 -35.725235 83.275040 -94.794815 -89.017426 -67.071037 90.522522 -1.071186 -0.566712 0.590991 189.443176 -90.000000 0.000000 
-0.171954 88.047340 -21.753746 8.003209 4.184942 -0.731252 -89.999992 -90.000000 0.000000 -0.217618 -0.263882 -0.380370 -0.733554 -0.902488 -1.271034 0.000000 0.000000 0.000000 0.000000 0.000000 0.000000 89.999878 -0.345860 -85.351776 7.259306 10.393097 68.208923 19.877474 80.340332 -20.524281 0.000000 0.000000 0.000000 -89.997421 0.137887 -88.147034 -23.255066 -20.929157 63.548599 -14.455214 -64.660057 -16.022945 0.000000 0.000000 0.000000 -54.449890 82.800293 -55.246468 89.641182 34.604767 90.089088 -21.632132 3.738545 3.108743 179.947006 90.000000 0.000000 -34.274700 83.682083 -101.224632 -88.860214 -71.000198 90.659035 -1.315950 -0.986739 0.715213 188.587646 -90.000000 0.000000 
0.016090 88.182747 -21.885754 8.056911 4.071625 -0.390843 -89.999992 -90.000000 0.000000 -0.098820 -0.162141 -0.372522 -0.331331 -0.568415 -1.244543 0.000000 0.000000 0.000000 0.000000 0.000000 0.000000 89.999565 -0.347143 -85.334671 5.999706 10.968409 66.990311 26.528576 86.102463 -26.857286 0.000000 0.000000 0.000000 -89.998291 0.109505 -88.528458 -24.731184 -19.213284 64.083282 -15.549123 -66.085945 -17.036692 0.000000 0.000000 0.000000 -50.388817 82.747551 -59.304905 89.646187 34.251865 90.086243 -21.191322 4.082595 3.255865 180.053604 90.000000 0.000000 -26.952175 84.146309 -113.046112 -88.704536 -73.885239 90.799797 -0.809870 -1.093539 0.734693 188.111206 -90.000000 0.000000 
0.245835 88.375870 -22.006763 8.021113 4.249162 -0.000613 -89.999992 -90.000000 0.000000 0.023266 -0.049947 -0.388189 0.081980 -0.198881 -1.298167 0.000000 0.000000 0.000000 0.000000 0.000000 0.000000 89.999290 -0.339680 -85.434937 4.233910 11.802560 65.865807 39.643166 90.818459 -39.694061 0.000000 0.000000 0.000000 -89.999214 0.083043 -88.884186 -26.095943 -17.893578 64.661163 -16.101574 -66.853912 -17.545219 0.000000 0.000000 0.000000 -46.076916 82.697777 -63.513020 89.651634 33.857025 90.083260 -20.512154 3.968317 3.069226 179.823029 90.000000 0.000000 -14.943100 84.427971 -129.271790 -88.567314 -75.812393 90.927238 0.234026 -0.930519 0.654857 187.633667 -90.000000 0.000000 
0.485579 88.623680 -22.156670 7.997419 4.323175 0.386476 -89.999992 -90.000000 0.000000 0.143321 0.064181 -0.427737 0.488598 0.177885 -1.433141 0.000000 0.000000 0.000000 0.000000 0.000000 0.000000 89.999054 -0.326339 -85.614273 1.482214 12.867261 65.184776 62.738289 93.390137 -62.587940 0.000000 0.000000 0.000000 -90.000061 0.060514 -89.187035 -27.469982 -16.339752 65.500519 -16.285046 -67.234764 -17.706146 0.000000 0.000000 0.000000 -42.390923 82.585068 -67.125229 89.657768 33.397705 90.080017 -19.529945 3.510761 2.581914 179.243958 90.000000 0.000000 -4.851744 84.475296 -143.528839 -88.471802 -76.826424 91.017715 1.046680 -0.935025 0.624887 187.155838 -90.000000 0.000000 
0.712524 88.958000 -22.328278 7.972292 4.132123 0.779660 -89.999992 -90.000000 0.000000 0.255575 0.172908 -0.485989 0.869467 0.537258 -1.631973 0.000000 0.000000 0.000000 0.000000 0.000000 0.000000 89.998817 -0.311314 -85.816208 -1.996775 13.893624 64.909348 89.298035 93.691101 -89.027863 0.000000 0.000000 0.000000 -90.000824 0.041064 -89.448509 -28.825392 -14.652706 66.603149 -16.029566 -67.173256 -17.452574 0.000000 0.000000 0.000000 -38.928883 82.442612 -70.437943 89.666245 32.719505 90.075966 -18.017326 3.148694 2.071275 178.044769 90.000000 0.000000 5.070082 84.358932 -157.232193 -88.470657 -76.579750 91.020340 1.373741 -1.229151 0.698985 186.678497 -90.000000 0.000000 
0.959969 89.474312 -22.551386 7.887113 4.092720 1.297077 -89.999992 -90.000000 0.000000 0.353722 0.270549 -0.554836 1.203900 0.859306 -1.867576 0.000000 0.000000 0.000000 0.000000 0.000000 0.000000 89.998589 -0.297828 -85.997406 -5.574257 14.727516 64.650192 106.558365 92.875198 -106.234421 0.000000 0.000000 0.000000 -90.001648 0.021601 -89.710220 -29.935881 -13.373011 67.841042 -15.325055 -66.613190 -16.777472 0.000000 0.000000 0.000000 -34.137138 82.357124 -74.864563 89.679176 31.620497 90.070389 -15.630667 2.994452 1.701715 176.038879 90.000000 0.000000 17.321144 83.805695 -172.552368 -88.588623 -74.766434 90.911880 1.308177 -1.462408 0.749091 186.201462 -90.000000 0.000000 
